<svg id="Capa_1" enable-background="new 0 0 512 512" height="512" viewBox="0 0 512 512" width="512" xmlns="http://www.w3.org/2000/svg"><g><path d="m420.06 398.13h-1.49v-363.13c0-19.3-15.7-35-35-35h-255.14c-19.3 0-35 15.7-35 35v363.13h-1.49c-24.81 0-45 20.18-45 45v43.87c0 13.79 11.22 25 25 25h368.12c13.78 0 25-11.21 25-25v-43.87c0-24.82-20.19-45-45-45zm-296.63-363.13c0-2.76 2.24-5 5-5h255.14c2.76 0 5 2.24 5 5v363.13h-265.14zm311.63 447h-358.12v-38.87c0-8.27 6.73-15 15-15h328.12c8.27 0 15 6.73 15 15z"/><path d="m247.162 86.536h-79.282c-8.284 0-15 6.716-15 15s6.716 15 15 15h79.281c8.284 0 15-6.716 15-15s-6.715-15-14.999-15z"/><path d="m344.12 86.536h-26.667c-8.284 0-15 6.716-15 15s6.716 15 15 15h26.667c8.284 0 15-6.716 15-15s-6.716-15-15-15z"/><path d="m247.162 179.934h-79.282c-8.284 0-15 6.716-15 15s6.716 15 15 15h79.281c8.284 0 15-6.716 15-15s-6.715-15-14.999-15z"/><path d="m344.12 179.934h-26.667c-8.284 0-15 6.716-15 15s6.716 15 15 15h26.667c8.284 0 15-6.716 15-15s-6.716-15-15-15z"/><path d="m247.162 273.33h-79.282c-8.284 0-15 6.716-15 15s6.716 15 15 15h79.281c8.284 0 15-6.716 15-15s-6.715-15-14.999-15z"/><path d="m344.12 273.33h-26.667c-8.284 0-15 6.716-15 15s6.716 15 15 15h26.667c8.284 0 15-6.716 15-15s-6.716-15-15-15z"/></g></svg>